<svg width="128" height="128" viewBox="0 0 128 128" xmlns="http://www.w3.org/2000/svg">
  <!-- 背景 -->
  <rect width="128" height="128" fill="#3b82f6" rx="20"/>
  
  <!-- 二维码图案 -->
  <g fill="white">
    <!-- 左上角定位块 -->
    <rect x="16" y="16" width="24" height="24" rx="2"/>
    <rect x="20" y="20" width="16" height="16" fill="#3b82f6"/>
    <rect x="24" y="24" width="8" height="8" fill="white"/>
    
    <!-- 右上角定位块 -->
    <rect x="88" y="16" width="24" height="24" rx="2"/>
    <rect x="92" y="20" width="16" height="16" fill="#3b82f6"/>
    <rect x="96" y="24" width="8" height="8" fill="white"/>
    
    <!-- 左下角定位块 -->
    <rect x="16" y="88" width="24" height="24" rx="2"/>
    <rect x="20" y="92" width="16" height="16" fill="#3b82f6"/>
    <rect x="24" y="96" width="8" height="8" fill="white"/>
    
    <!-- 中间的数据点 -->
    <rect x="48" y="48" width="4" height="4"/>
    <rect x="56" y="48" width="4" height="4"/>
    <rect x="64" y="48" width="4" height="4"/>
    <rect x="72" y="48" width="4" height="4"/>
    
    <rect x="48" y="56" width="4" height="4"/>
    <rect x="64" y="56" width="4" height="4"/>
    <rect x="72" y="56" width="4" height="4"/>
    
    <rect x="48" y="64" width="4" height="4"/>
    <rect x="56" y="64" width="4" height="4"/>
    <rect x="72" y="64" width="4" height="4"/>
    
    <rect x="48" y="72" width="4" height="4"/>
    <rect x="56" y="72" width="4" height="4"/>
    <rect x="64" y="72" width="4" height="4"/>
    <rect x="72" y="72" width="4" height="4"/>
  </g>
</svg> 
