<svg width="128" height="128" viewBox="0 0 128 128" xmlns="http://www.w3.org/2000/svg">
  <!-- 渐变定义 -->
  <defs>
    <linearGradient id="bgGradient" x1="0%" y1="0%" x2="100%" y2="100%">
      <stop offset="0%" style="stop-color:#4f46e5;stop-opacity:1" />
      <stop offset="100%" style="stop-color:#3b82f6;stop-opacity:1" />
    </linearGradient>
    <linearGradient id="scanGradient" x1="0%" y1="0%" x2="100%" y2="0%">
      <stop offset="0%" style="stop-color:#fbbf24;stop-opacity:0.3" />
      <stop offset="50%" style="stop-color:#f59e0b;stop-opacity:0.8" />
      <stop offset="100%" style="stop-color:#fbbf24;stop-opacity:0.3" />
    </linearGradient>
  </defs>
  
  <!-- 背景 -->
  <rect width="128" height="128" fill="url(#bgGradient)" rx="24"/>
  
  <!-- 二维码图案 -->
  <g fill="white">
    <!-- 左上角定位块 -->
    <rect x="20" y="20" width="20" height="20" rx="2"/>
    <rect x="23" y="23" width="14" height="14" fill="#4f46e5"/>
    <rect x="26" y="26" width="8" height="8" fill="white"/>
    
    <!-- 右上角定位块 -->
    <rect x="88" y="20" width="20" height="20" rx="2"/>
    <rect x="91" y="23" width="14" height="14" fill="#4f46e5"/>
    <rect x="94" y="26" width="8" height="8" fill="white"/>
    
    <!-- 左下角定位块 -->
    <rect x="20" y="88" width="20" height="20" rx="2"/>
    <rect x="23" y="91" width="14" height="14" fill="#4f46e5"/>
    <rect x="26" y="94" width="8" height="8" fill="white"/>
    
    <!-- 中间的数据点 -->
    <rect x="50" y="50" width="3" height="3" rx="0.5"/>
    <rect x="56" y="50" width="3" height="3" rx="0.5"/>
    <rect x="62" y="50" width="3" height="3" rx="0.5"/>
    <rect x="68" y="50" width="3" height="3" rx="0.5"/>
    <rect x="74" y="50" width="3" height="3" rx="0.5"/>
    
    <rect x="50" y="56" width="3" height="3" rx="0.5"/>
    <rect x="62" y="56" width="3" height="3" rx="0.5"/>
    <rect x="74" y="56" width="3" height="3" rx="0.5"/>
    
    <rect x="50" y="62" width="3" height="3" rx="0.5"/>
    <rect x="56" y="62" width="3" height="3" rx="0.5"/>
    <rect x="68" y="62" width="3" height="3" rx="0.5"/>
    <rect x="74" y="62" width="3" height="3" rx="0.5"/>
    
    <rect x="50" y="68" width="3" height="3" rx="0.5"/>
    <rect x="56" y="68" width="3" height="3" rx="0.5"/>
    <rect x="62" y="68" width="3" height="3" rx="0.5"/>
    <rect x="74" y="68" width="3" height="3" rx="0.5"/>
    
    <rect x="50" y="74" width="3" height="3" rx="0.5"/>
    <rect x="68" y="74" width="3" height="3" rx="0.5"/>
    <rect x="74" y="74" width="3" height="3" rx="0.5"/>
  </g>
  
  <!-- 扫描线效果 -->
  <rect x="45" y="60" width="38" height="2" fill="url(#scanGradient)" rx="1">
    <animateTransform
      attributeName="transform"
      attributeType="XML"
      type="translate"
      values="0,0; 0,-20; 0,0"
      dur="2s"
      repeatCount="indefinite"/>
  </rect>
  
  <!-- 扫描框角落 -->
  <g stroke="#fbbf24" stroke-width="2" fill="none" opacity="0.8">
    <!-- 左上角 -->
    <path d="M45 45 L45 50 M45 45 L50 45"/>
    <!-- 右上角 -->
    <path d="M83 45 L78 45 M83 45 L83 50"/>
    <!-- 左下角 -->
    <path d="M45 83 L45 78 M45 83 L50 83"/>
    <!-- 右下角 -->
    <path d="M83 83 L78 83 M83 83 L83 78"/>
  </g>
</svg> 
 